<?xml version="1.0" encoding="utf-8"?>
<!-- Generator: Adobe Illustrator 16.0.0, SVG Export Plug-In . SVG Version: 6.00 Build 0)  -->
<!DOCTYPE svg PUBLIC "-//W3C//DTD SVG 1.1//EN" "http://www.w3.org/Graphics/SVG/1.1/DTD/svg11.dtd">
<svg version="1.1" id="Layer_1" xmlns="http://www.w3.org/2000/svg" xmlns:xlink="http://www.w3.org/1999/xlink" x="0px" y="0px"
	 width="612px" height="612px" viewBox="0 90 612 612" enable-background="new 0 90 612 612" xml:space="preserve">
<path d="M306.004,130.164c-64.522,0-132.95,54.348-132.95,94.911v94.95c0,36.545,15.2,106.464,55.964,138.563
	c10.393,8.18,15.788,21.186,14.23,34.322c-1.558,13.157-9.852,24.529-21.878,30.059L56.018,601.382
	c-1.292,0.589-15.846,3.029-15.846,23.359l-0.019,37.087l531.686,0.028v-38.56c0-15.105-11.334-19.847-15.865-21.937
	l-166.854-78.744c-11.971-5.49-20.229-16.813-21.832-29.877c-1.615-13.062,3.658-26.029,13.928-34.266
	c39.473-31.691,57.863-101.354,57.863-138.45v-94.95C439.068,185.386,369.957,130.163,306.004,130.164L306.004,130.164z
	 M306.004,92.163c83.902,0,171.072,70.024,171.072,132.912v94.951c0,41.485-18.934,125.426-72.074,168.079l166.863,78.753
	c0,0,37.971,16.92,37.971,37.98v57.018c0,20.985-17.004,37.98-37.971,37.98H40.144c-20.985,0-37.979-16.995-37.979-37.98v-57.018
	c0-22.324,37.979-37.98,37.979-37.98l165.354-78.41c-52.639-41.43-70.45-122.814-70.45-168.423v-94.95
	C135.046,162.187,222.111,92.164,306.004,92.163L306.004,92.163L306.004,92.163z"/>
</svg>
